<?xml version="1.0" encoding="UTF-8"?>
<svg xmlns="http://www.w3.org/2000/svg" xmlns:xlink="http://www.w3.org/1999/xlink" width="22px" height="24px" viewBox="0 0 22 23" version="1.1">
<defs>
<linearGradient id="linear0" gradientUnits="userSpaceOnUse" x1="0.47271" y1="-0.17693" x2="0.61471" y2="0.99941" gradientTransform="matrix(22,0,0,12.109375,0,10.816406)">
<stop offset="0" style="stop-color:rgb(100%,83.529412%,30.980392%);stop-opacity:1;"/>
<stop offset="0.2164" style="stop-color:rgb(100%,81.568627%,23.921569%);stop-opacity:1;"/>
<stop offset="0.7309" style="stop-color:rgb(100%,77.254902%,8.627451%);stop-opacity:1;"/>
<stop offset="1" style="stop-color:rgb(100%,75.686275%,2.745098%);stop-opacity:1;"/>
</linearGradient>
<filter id="alpha" filterUnits="objectBoundingBox" x="0%" y="0%" width="100%" height="100%">
  <feColorMatrix type="matrix" in="SourceGraphic" values="0 0 0 0 1 0 0 0 0 1 0 0 0 0 1 0 0 0 1 0"/>
</filter>
<mask id="mask0">
  <g filter="url(#alpha)">
<rect x="0" y="0" width="22" height="23" style="fill:rgb(0%,0%,0%);fill-opacity:0.2;stroke:none;"/>
  </g>
</mask>
<linearGradient id="linear1" gradientUnits="userSpaceOnUse" x1="0" y1="0.49999" x2="1" y2="0.49999" gradientTransform="matrix(22,0,0,12.902344,0,0)">
<stop offset="0" style="stop-color:rgb(100%,83.529412%,30.980392%);stop-opacity:1;"/>
<stop offset="0.2164" style="stop-color:rgb(100%,81.568627%,23.921569%);stop-opacity:1;"/>
<stop offset="0.7309" style="stop-color:rgb(100%,77.254902%,8.627451%);stop-opacity:1;"/>
<stop offset="1" style="stop-color:rgb(100%,75.686275%,2.745098%);stop-opacity:1;"/>
</linearGradient>
<clipPath id="clip1">
  <rect x="0" y="0" width="22" height="23"/>
</clipPath>
<g id="surface5" clip-path="url(#clip1)">
<path style=" stroke:none;fill-rule:nonzero;fill:url(#linear1);" d="M 22 10.816406 C 22 5.222656 17.535156 0.53125 11.859375 0.101562 C 11.578125 0.0820312 11.289062 0 11 0 C 10.710938 0 10.429688 0.0859375 10.144531 0.105469 C 4.46875 0.527344 0 5.222656 0 10.816406 L 0.0078125 10.816406 C 0.0078125 11.164062 0 10.847656 0 10.867188 C 0 11.996094 4.925781 12.902344 11 12.902344 C 17.074219 12.902344 22 12 22 10.871094 C 22 10.851562 21.996094 11.164062 21.992188 10.816406 Z M 22 10.816406 "/>
</g>
<mask id="mask1">
  <g filter="url(#alpha)">
<rect x="0" y="0" width="22" height="23" style="fill:rgb(0%,0%,0%);fill-opacity:0.501961;stroke:none;"/>
  </g>
</mask>
<linearGradient id="linear2" gradientUnits="userSpaceOnUse" x1="0.49999" y1="-0.0002" x2="0.49999" y2="0.99981" gradientTransform="matrix(10.050781,0,0,2.59375,5.742187,18.828125)">
<stop offset="0" style="stop-color:rgb(100%,75.686275%,2.745098%);stop-opacity:1;"/>
<stop offset="0.4213" style="stop-color:rgb(100%,74.509804%,2.352941%);stop-opacity:1;"/>
<stop offset="0.6937" style="stop-color:rgb(100%,71.372549%,1.960784%);stop-opacity:1;"/>
<stop offset="0.9233" style="stop-color:rgb(100%,65.490196%,0.392157%);stop-opacity:1;"/>
<stop offset="1" style="stop-color:rgb(100%,62.745098%,0%);stop-opacity:1;"/>
</linearGradient>
<clipPath id="clip2">
  <rect x="0" y="0" width="22" height="23"/>
</clipPath>
<g id="surface8" clip-path="url(#clip2)">
<path style=" stroke:none;fill-rule:nonzero;fill:url(#linear2);" d="M 15.792969 20.3125 C 14.382812 20.917969 12.824219 21.476562 11 21.421875 C 8.316406 21.335938 6.695312 20.523438 5.742188 20.078125 C 5.292969 19.867188 8.019531 18.828125 11.300781 18.828125 C 13.578125 18.828125 16.726562 19.914062 15.792969 20.3125 Z M 15.792969 20.3125 "/>
</g>
</defs>
<g id="surface1">
<path style=" stroke:none;fill-rule:nonzero;fill:url(#linear0);" d="M 11 21.421875 C 11.289062 21.421875 11.574219 21.410156 11.855469 21.386719 C 12.023438 21.375 12.472656 21.324219 12.640625 21.308594 C 12.925781 21.273438 13.28125 22.96875 13.558594 22.914062 C 13.855469 22.855469 13.78125 21.113281 14.066406 21.03125 C 18.648438 19.742188 22 16.058594 22 10.816406 L 0 10.816406 C 0 15.707031 3.15625 19.503906 7.535156 20.910156 C 7.785156 20.992188 7.773438 22.863281 8.035156 22.925781 C 8.304688 22.992188 8.847656 21.226562 9.125 21.273438 C 9.457031 21.328125 9.796875 21.367188 10.136719 21.390625 C 10.421875 21.414062 10.710938 21.417969 11 21.417969 Z M 11 21.421875 "/>
<path style=" stroke:none;fill-rule:nonzero;fill:rgb(100%,87.843137%,50.980392%);fill-opacity:1;" d="M 22 10.730469 C 22 9.605469 17.074219 8.691406 11 8.691406 C 4.925781 8.691406 0 9.605469 0 10.730469 C 0 11.859375 4.925781 12.773438 11 12.773438 C 17.074219 12.773438 22 11.859375 22 10.730469 Z M 22 10.730469 "/>
<use xlink:href="#surface5" mask="url(#mask0)"/>
<use xlink:href="#surface8" mask="url(#mask1)"/>
<path style=" stroke:none;fill-rule:nonzero;fill:rgb(100%,56.078431%,0%);fill-opacity:1;" d="M 9.371094 14.929688 C 9.371094 14.398438 9.003906 13.96875 8.550781 13.96875 C 8.097656 13.96875 7.730469 14.398438 7.730469 14.929688 C 7.730469 15.019531 7.730469 15.367188 7.730469 15.457031 C 7.730469 15.988281 8.097656 16.414062 8.550781 16.414062 C 9.003906 16.414062 9.371094 15.984375 9.371094 15.457031 Z M 13.699219 14.929688 C 13.699219 14.398438 13.308594 13.96875 12.855469 13.96875 C 12.402344 13.96875 12.023438 14.398438 12.023438 14.929688 C 12.023438 15.019531 12.015625 15.367188 12.015625 15.457031 C 12.015625 15.988281 12.402344 16.414062 12.855469 16.414062 C 13.3125 16.414062 13.699219 15.988281 13.699219 15.457031 Z M 13.699219 14.929688 "/>
</g>
</svg>
